<svg version="1" xmlns="http://www.w3.org/2000/svg" width="1000" height="1000" viewBox="0 0 750.000000 750.000000"><path d="M0 94v94h40.3c88.7 0 168.1 3.5 251.6 11.1l13.4 1.3-11.1 5.2c-59.7 28.1-100.5 87.1-106.1 153.4-1.1 12.9 0 35.8 2.3 48.5 6.6 36.8 23.1 69.3 48.5 95.8 4.6 4.8 7.9 8.7 7.3 8.7-2.5 0-33-10.6-49.5-17.2-41.5-16.5-76.9-37.7-105.1-62.7C36.7 383.4 6.8 314.7 1.1 223.5c-.5-7.3-.9 105.3-1 256.7L0 750h750V562.3l-65.7-.6c-61.8-.6-79.9-1.1-131.8-3.7-31.9-1.7-78.6-5.2-101.5-7.8l-6.4-.7 8.4-3.9c54.5-25.3 93.1-73.8 105.6-133 3.2-15 4.4-43.8 2.5-59.3-5.1-41.3-22.3-77.5-50.9-107.5-4.1-4.3-7-7.8-6.4-7.8.5 0 10.3 3.2 21.6 7 100.2 34.1 164.6 86.9 196.7 161.5 15.4 35.8 24.2 76.8 26.8 125 .4 8.4.9-104.5 1-258.3L750 0H0v94z"/></svg>